<?xml version="1.0" encoding="UTF-8"?>
<!DOCTYPE svg PUBLIC "-//W3C//DTD SVG 1.1//EN" "http://www.w3.org/Graphics/SVG/1.1/DTD/svg11.dtd">
<!-- Creator: CorelDRAW -->
<svg xmlns="http://www.w3.org/2000/svg" xml:space="preserve" width="210mm" height="297mm" version="1.1" style="shape-rendering:geometricPrecision; text-rendering:geometricPrecision; image-rendering:optimizeQuality; fill-rule:evenodd; clip-rule:evenodd"
viewBox="0 0 21000 29700"
 xmlns:xlink="http://www.w3.org/1999/xlink"
 xmlns:xodm="http://www.corel.com/coreldraw/odm/2003">
 <defs>
  <style type="text/css">
   <![CDATA[
    .fil0 {fill:url(#id0);fill-rule:nonzero}
   ]]>
  </style>
  <linearGradient id="id0" gradientUnits="userSpaceOnUse" x1="349922.57" y1="-89541.06" x2="329506.17" y2="-113185.45">
   <stop offset="0" style="stop-opacity:1; stop-color:#334E98"/>
   <stop offset="0.458824" style="stop-opacity:1; stop-color:#3873CB"/>
   <stop offset="1" style="stop-opacity:1; stop-color:#3D98FF"/>
  </linearGradient>
 </defs>
 <g id="Camada_x0020_1">
  <metadata id="CorelCorpID_0Corel-Layer"/>
  <path class="fil0" d="M346132.3 -94292.8l-1133.46 0 -7785.96 0c-789.54,-12.3 -1651.1,-597.7 -1660.29,-1649.25l0 -10304.21c28.72,-1028.01 782.67,-1623.54 1660.29,-1649.28l15416.08 0c1731.1,0 2949.67,1267.46 2949.67,3022.84 0,251.95 0,881.66 0,1133.59l-3022.73 0 0 -1133.59 -13079.04 0c-720.11,-2.19 -885.71,258.4 -901.42,828.71l0 5861.69c0,627.98 133.33,866.65 933.8,866.65l5489.6 0 1133.46 0 0 3022.85zm1133.59 -14736.22l3022.91 0c0,-251.93 0,-881.73 0,-1133.58 0,-1423.11 -1001.01,-3022.85 -3032.85,-3022.85l-13970.47 0c-1411.7,0 -2367.65,0 -3779.31,0 812.73,812.75 756.47,2138.02 756.47,3537.79l0 17621.93c0,1657.84 830.61,3022.84 3022.84,3022.84l15544.17 0c653.75,-46.59 1489.08,-536.32 1459.15,-1664.04l0 -1358.8 0 -10579.87 -3022.91 0 -6423.39 0 0 3022.89 0 1133.56 1547.89 -1133.56 4875.5 0 0 6855.63c0,534.81 -359.97,710.24 -657.35,701.35l-12131.81 0c-917.68,30.59 -1180.98,-277.97 -1191.25,-995l0 -16254.66c17.1,-610.02 373.35,-889.23 1090.58,-887.21l12889.83 0 0 1133.58zm5290.01 21303.66l0 -6567.44 -1133.6 0 0 -3022.85 1133.6 0c2394.16,0 3091.1,1518.67 3022.73,3511.24 0,0 0,4755.06 0,6376.85 0,1238.26 35.11,2770.16 979.65,3714.66 -5034.69,0 -12938.29,0 -17972.98,0 -1634.05,0 -3032.71,-1308.94 -3032.71,-3022.71l0 -1133.58 3022.85 0 0 1133.58 13092.13 0c650.61,-69.62 859.17,-376.58 888.33,-989.75z"/>
 </g>
</svg>
